HIERARCHY
ROOT Hips
{
	OFFSET 0.00 0.00 0.00
	CHANNELS 6 Xposition Yposition Zposition Xrotation Yrotation Zrotation
	JOINT RightUpLeg
	{
		OFFSET -4.47808 0.00000 0.00000
		CHANNELS 3 Xrotation Yrotation Zrotation
		JOINT RightLeg
		{
			OFFSET 0.00000 -16.40577 0.00000
			CHANNELS 3 Xrotation Yrotation Zrotation
			JOINT RightFoot
			{
				OFFSET 0.00000 -14.64414 0.00000
				CHANNELS 3 Xrotation Yrotation Zrotation
				JOINT RightToeBase
				{
					OFFSET 0.00000 -1.50274 5.60831
					CHANNELS 3 Xrotation Yrotation Zrotation
					End Site
					{
						OFFSET 0.00000 0.00000 2.95275
					}
				}
			}
		}
	}
	JOINT LeftUpLeg
	{
		OFFSET 4.47808 0.00000 0.00000
		CHANNELS 3 Xrotation Yrotation Zrotation
		JOINT LeftLeg
		{
			OFFSET 0.00000 -16.40577 0.00000
			CHANNELS 3 Xrotation Yrotation Zrotation
			JOINT LeftFoot
			{
				OFFSET 0.00000 -14.64414 0.00000
				CHANNELS 3 Xrotation Yrotation Zrotation
				JOINT LeftToeBase
				{
					OFFSET 0.00000 -1.50274 5.60831
					CHANNELS 3 Xrotation Yrotation Zrotation
					End Site
					{
						OFFSET 0.00000 0.00000 2.95275
					}
				}
			}
		}
	}
	JOINT Spine
	{
		OFFSET 0.00000 6.06821 0.00000
		CHANNELS 3 Xrotation Yrotation Zrotation
		JOINT RightShoulder
		{
			OFFSET 0.00000 10.01392 0.00000
			CHANNELS 3 Xrotation Yrotation Zrotation
			JOINT RightArm
			{
				OFFSET -7.19022 0.00000 0.00000
				CHANNELS 3 Xrotation Yrotation Zrotation
				JOINT RightForeArm
				{
					OFFSET -10.17747 0.00000 0.00000
					CHANNELS 3 Yrotation Zrotation Xrotation
					JOINT RightHand
					{
						OFFSET -8.39211 0.00000 0.00000
						CHANNELS 3 Xrotation Yrotation Zrotation
						End Site
						{
							OFFSET -3.93700 0.00000 0.00000
						}
						JOINT RightHandThumb1
						{
							OFFSET 0.00000 0.00000 0.00000
							CHANNELS 3 Xrotation Zrotation Yrotation
							End Site
							{
								OFFSET 0.00000 0.00000 3.93700
							}
						}
					}
				}
			}
		}
		JOINT LeftShoulder
		{
			OFFSET 0.00000 10.01392 0.00000
			CHANNELS 3 Xrotation Yrotation Zrotation
			JOINT LeftArm
			{
				OFFSET 7.19022 0.00000 0.00000
				CHANNELS 3 Xrotation Yrotation Zrotation
				JOINT LeftForeArm
				{
					OFFSET 10.17747 0.00000 0.00000
					CHANNELS 3 Yrotation Zrotation Xrotation
					JOINT LeftHand
					{
						OFFSET 8.39211 0.00000 0.00000
						CHANNELS 3 Xrotation Yrotation Zrotation
						End Site
						{
							OFFSET 3.93700 0.00000 0.00000
						}
						JOINT LeftHandThumb1
						{
							OFFSET 0.00000 0.00000 0.00000
							CHANNELS 3 Xrotation Zrotation Yrotation
							End Site
							{
								OFFSET 0.00000 0.00000 3.93700
							}
						}
					}
				}
			}
		}
		JOINT Head
		{
			OFFSET 0.00000 15.77748 0.00000
			CHANNELS 3 Xrotation Yrotation Zrotation
			End Site
			{
				OFFSET 0.00000 4.52755 0.00000
			}
		}
	}
}
MOTION
Frames: 18
Frame Time: 0.008333
 -3.2199 33.1819 -3.7537 8.1925 -1.5765 2.8386 -4.5658 -6.5642 -3.5551 4.1350 0.0000 -0.0000 -12.6716 -6.0428 -1.3046 4.4081 -0.0000 0.0000 -3.0498 2.6306 1.9071 4.3375 -0.0000 0.0000 -11.3282 7.5662 -13.1817 9.2863 -0.0000 -0.0000 -11.3677 -1.5709 -3.2891 -12.5514 -4.9856 -35.7439 -74.5635 -14.4848 25.9472 71.6225 0.0000 -22.1121 11.1942 16.5425 -34.8014 32.8623 0.0000 -24.3270 -2.2742 10.4679 11.6769 -4.6321 -39.1118 -85.7182 -17.7802 -0.0000 15.2068 0.0257 0.0876 -16.3207 33.1476 -0.0000 26.2537 -4.5371 -38.4450 -7.4640
 -3.2210 33.1817 -3.7526 8.2136 -1.5353 2.8380 -4.5760 -6.5742 -3.5537 4.1301 -0.0000 -0.0000 -12.6864 -6.0768 -1.2819 4.4292 -0.0000 0.0000 -3.0657 2.6230 1.9101 4.3120 0.0000 0.0000 -11.3139 7.5322 -13.2193 9.3386 0.0000 0.0000 -11.3731 -1.6260 -3.2834 -12.4087 -5.1234 -35.5742 -74.7542 -15.0349 25.8399 74.6826 0.0000 -21.6883 11.3175 16.3000 -35.4919 32.8623 0.0000 -24.3270 -2.2455 10.5016 11.6735 -4.6751 -39.0166 -85.7257 -17.8736 -0.0000 15.1814 0.0341 0.1168 -16.2879 33.1476 -0.0000 26.2537 -4.6331 -38.4016 -7.5262
 -3.2234 33.1816 -3.7523 8.2319 -1.4963 2.8358 -4.5820 -6.5640 -3.5481 4.1211 0.0000 -0.0000 -12.6854 -6.1241 -1.2874 4.4204 0.0000 -0.0000 -3.0872 2.6069 1.9176 4.3018 0.0000 0.0000 -11.3004 7.5095 -13.2341 9.3308 0.0000 -0.0000 -11.3720 -1.7046 -3.2691 -12.3522 -5.2077 -35.4587 -74.8507 -15.5925 25.7810 77.7592 0.0000 -21.2648 11.5408 16.0337 -36.4751 32.8623 0.0000 -24.3270 -2.2316 10.5469 11.6562 -4.6894 -38.9082 -85.7125 -17.9616 -0.0000 15.2114 0.0394 0.1374 -16.0037 33.1476 -0.0000 26.2537 -4.7597 -38.3337 -7.6172
 -3.2262 33.1818 -3.7512 8.2446 -1.4690 2.8356 -4.5866 -6.5610 -3.5424 4.1201 -0.0000 0.0000 -12.6952 -6.1508 -1.3009 4.4490 0.0000 -0.0000 -3.0953 2.6018 1.9220 4.2833 0.0000 0.0000 -11.2860 7.4850 -13.2197 9.3257 0.0000 -0.0000 -11.3642 -1.7607 -3.2486 -12.2179 -5.3740 -35.3281 -75.0339 -16.1103 25.7362 80.7709 0.0000 -20.9948 11.4604 16.2143 -35.9811 32.8623 0.0000 -24.3270 -2.2382 10.5840 11.6348 -4.6852 -38.8601 -85.6858 -18.0323 -0.0000 15.1091 0.0472 0.1652 -15.9543 33.1476 -0.0000 26.2537 -4.9244 -38.2641 -7.7340
 -3.2280 33.1816 -3.7496 8.2537 -1.4487 2.8371 -4.5850 -6.5676 -3.5412 4.1121 0.0000 0.0000 -12.6928 -6.1606 -1.3128 4.4164 -0.0000 0.0000 -3.0967 2.5978 1.9241 4.2628 0.0000 0.0000 -11.2725 7.4722 -13.2501 9.3456 0.0000 0.0000 -11.3598 -1.7935 -3.2351 -12.0558 -5.5418 -35.1683 -75.2647 -16.5401 25.6445 83.6761 0.0000 -20.7754 11.7459 16.3383 -36.4694 32.8623 0.0000 -24.3270 -2.1946 10.6153 11.6073 -4.7271 -38.7694 -85.6710 -18.1064 -0.0000 15.0875 0.0553 0.1937 -15.9342 33.1476 -0.0000 26.2537 -4.9890 -38.2319 -7.8070
 -3.2300 33.1810 -3.7479 8.2651 -1.4263 2.8359 -4.5872 -6.5801 -3.5383 4.1076 -0.0000 -0.0000 -12.7083 -6.1714 -1.3158 4.4351 -0.0000 0.0000 -3.1020 2.5770 1.9267 4.2476 0.0000 0.0000 -11.2676 7.4695 -13.2396 9.3329 -0.0000 0.0000 -11.3549 -1.8334 -3.2178 -11.8866 -5.7037 -35.0353 -75.4495 -16.9090 25.5263 86.4786 0.0000 -20.4762 11.9724 16.0507 -37.4864 32.8623 0.0000 -24.3270 -2.2430 10.6042 11.6045 -4.6774 -38.6624 -85.6691 -18.1531 -0.0000 15.0261 0.0364 0.1258 -16.1571 33.1476 -0.0000 26.2537 -5.0788 -38.1718 -7.8815
 -3.2322 33.1800 -3.7463 8.2797 -1.4238 2.8372 -4.5963 -6.5811 -3.5365 4.0967 -0.0000 0.0000 -12.7194 -6.1444 -1.3257 4.1619 0.0000 0.0000 -3.1016 2.5571 1.9288 4.2251 0.0000 -0.0000 -11.2612 7.4834 -13.2389 9.3139 -0.0000 0.0000 -11.3558 -1.8563 -3.1992 -11.7417 -5.8681 -34.9008 -75.6885 -17.2332 25.4305 89.1155 0.0000 -20.0521 12.2413 16.3532 -37.6172 32.8623 0.0000 -24.3270 -2.2658 10.6080 11.6014 -4.6448 -38.6692 -85.6530 -18.2008 -0.0000 14.9113 0.0373 0.1291 -16.1327 33.1476 -0.0000 26.2537 -5.1643 -38.1318 -7.9674
 -3.2344 33.1792 -3.7451 8.2950 -1.4248 2.8377 -4.6073 -6.5634 -3.5301 4.1019 0.0000 0.0000 -12.7280 -6.1884 -1.3121 4.4230 -0.0000 -0.0000 -3.1043 2.5542 1.9341 4.2037 -0.0000 -0.0000 -11.2597 7.4828 -13.2507 9.3297 0.0000 0.0000 -11.3590 -1.8787 -3.1827 -11.6022 -5.9810 -34.7858 -75.8824 -17.4925 25.2498 91.5681 0.0000 -19.3929 12.3321 15.9840 -38.4470 32.8623 0.0000 -24.3270 -2.2731 10.6099 11.5942 -4.6270 -38.6187 -85.6418 -18.2370 -0.0000 14.8758 0.0293 0.1013 -16.1548 33.1476 -0.0000 26.2537 -5.2285 -38.0646 -8.0212
 -3.2360 33.1784 -3.7443 8.3184 -1.4206 2.8345 -4.6305 -6.5841 -3.5253 4.1079 0.0000 0.0000 -12.7432 -6.1712 -1.3326 4.4580 -0.0000 -0.0000 -3.1196 2.5478 1.9408 4.1890 -0.0000 -0.0000 -11.2618 7.4921 -13.2752 9.3336 0.0000 0.0000 -11.3765 -1.9175 -3.1582 -11.5322 -6.0515 -34.7035 -76.0400 -17.7276 25.0958 93.8398 0.0000 -18.6582 12.3734 15.7916 -38.8731 32.8623 0.0000 -24.3270 -2.3079 10.6042 11.5928 -4.5895 -38.5744 -85.6482 -18.2470 -0.0000 14.8399 0.0254 0.0876 -16.1615 33.1476 -0.0000 26.2537 -5.2755 -37.9802 -8.0677
 -3.2373 33.1774 -3.7425 8.3303 -1.4255 2.8372 -4.6385 -6.5841 -3.5251 4.1045 -0.0000 -0.0000 -12.7439 -6.1709 -1.3116 4.4239 -0.0000 -0.0000 -3.1169 2.5449 1.9400 4.1703 0.0000 0.0000 -11.2614 7.4961 -13.2510 9.3265 -0.0000 0.0000 -11.3904 -1.9469 -3.1446 -11.4488 -6.1711 -34.6369 -76.2225 -17.8912 25.0117 95.8307 0.0000 -17.7093 12.5939 15.8240 -39.3283 32.8623 0.0000 -24.3270 -2.3030 10.6001 11.5910 -4.5944 -38.5244 -85.6632 -18.2451 -0.0000 14.8323 0.0318 0.1097 -16.1686 33.1476 -0.0000 26.2537 -5.2861 -37.9005 -8.0950
 -3.2384 33.1763 -3.7403 8.3424 -1.4440 2.8358 -4.6462 -6.5752 -3.5214 4.1003 -0.0000 0.0000 -12.7517 -6.1502 -1.3146 4.4545 0.0000 0.0000 -3.1132 2.5658 1.9448 4.1541 -0.0000 -0.0000 -11.2647 7.4960 -13.2572 9.3134 0.0000 -0.0000 -11.4083 -1.9636 -3.1287 -11.4015 -6.2614 -34.6044 -76.3592 -18.0371 24.9489 97.6113 0.0000 -16.5532 12.7620 15.9604 -39.4784 32.8623 0.0000 -24.3270 -2.3145 10.5869 11.5997 -4.5862 -38.4761 -85.6897 -18.2314 -0.0000 14.8485 0.0331 0.1140 -16.1869 33.1476 -0.0000 26.2537 -5.2616 -37.8364 -8.0963
 -3.2395 33.1758 -3.7379 8.3538 -1.4638 2.8351 -4.6570 -6.5786 -3.5176 4.1023 0.0000 -0.0000 -12.7568 -6.1316 -1.3109 4.4664 0.0000 0.0000 -3.1073 2.5814 1.9481 4.1363 0.0000 0.0000 -11.2691 7.4999 -13.2622 9.3192 0.0000 -0.0000 -11.4284 -1.9710 -3.1205 -11.4007 -6.3295 -34.5852 -76.4150 -18.1087 24.8870 99.1416 0.0000 -15.4563 12.8839 15.9771 -39.7265 32.8623 0.0000 -24.3270 -2.3275 10.5565 11.6163 -4.5683 -38.4233 -85.7223 -18.2177 -0.0000 14.8658 0.0332 0.1145 -16.1742 33.1476 -0.0000 26.2537 -5.1993 -37.7704 -8.0345
 -3.2402 33.1753 -3.7340 8.3556 -1.4861 2.8349 -4.6535 -6.5728 -3.5157 4.0996 0.0000 0.0000 -12.7651 -6.1150 -1.3182 4.4639 -0.0000 -0.0000 -3.0890 2.5894 1.9500 4.1196 0.0000 -0.0000 -11.2658 7.5129 -13.2582 9.2817 0.0000 0.0000 -11.4445 -1.9903 -3.1138 -11.4072 -6.3749 -34.5868 -76.4372 -18.1382 24.8456 100.4495 0.0000 -14.3119 12.9564 15.7698 -40.2493 32.8623 0.0000 -24.3270 -2.3411 10.5407 11.6336 -4.5485 -38.4149 -85.7539 -18.1994 -0.0000 14.9152 0.0410 0.1415 -16.1688 33.1476 -0.0000 26.2537 -5.1205 -37.7084 -7.9750
 -3.2402 33.1753 -3.7304 8.3578 -1.5178 2.8352 -4.6544 -6.5800 -3.5150 4.0909 0.0000 -0.0000 -12.7556 -6.0645 -1.3020 4.1822 0.0000 0.0000 -3.0668 2.5792 1.9494 4.0965 -0.0000 -0.0000 -11.2701 7.5541 -13.2537 9.3160 -0.0000 0.0000 -11.4643 -2.0078 -3.1086 -11.4531 -6.3940 -34.6107 -76.3607 -18.0798 24.8471 101.4475 0.0000 -13.2896 13.2709 15.7603 -40.9692 32.8623 0.0000 -24.3270 -2.3315 10.5472 11.6427 -4.5553 -38.4186 -85.7763 -18.1701 -0.0000 15.0000 0.0398 0.1368 -16.2022 33.1476 -0.0000 26.2537 -5.0223 -37.6510 -7.8974
 -3.2410 33.1753 -3.7262 8.3533 -1.5576 2.8323 -4.6482 -6.5611 -3.5084 4.1024 0.0000 -0.0000 -12.7565 -6.0711 -1.3022 4.4706 0.0000 -0.0000 -3.0456 2.6127 1.9563 4.0939 0.0000 0.0000 -11.2807 7.5548 -13.2731 9.3301 0.0000 0.0000 -11.4792 -2.0225 -3.1011 -11.5193 -6.3900 -34.6511 -76.1786 -17.9295 24.8497 102.1873 0.0000 -12.3150 13.4512 15.4235 -41.9661 32.8623 0.0000 -24.3270 -2.3419 10.5424 11.6531 -4.5296 -38.4450 -85.7906 -18.1349 -0.0000 15.0414 0.0369 0.1269 -16.2126 33.1476 -0.0000 26.2537 -4.9150 -37.6026 -7.8227
 -3.2406 33.1755 -3.7225 8.3483 -1.6020 2.8352 -4.6484 -6.5647 -3.5108 4.1108 -0.0000 0.0000 -12.7538 -6.0271 -1.2976 4.4887 -0.0000 0.0000 -3.0229 2.6157 1.9521 4.0928 0.0000 0.0000 -11.2905 7.5993 -13.2547 9.3158 -0.0000 -0.0000 -11.4957 -2.0434 -3.0998 -11.5650 -6.3870 -34.6995 -76.0693 -17.7667 24.8616 102.6408 0.0000 -11.8129 13.7084 15.3866 -42.5935 32.8623 0.0000 -24.3270 -2.3512 10.5387 11.6615 -4.4997 -38.4795 -85.8004 -18.0932 -0.0000 15.0359 0.0332 0.1143 -16.2198 33.1476 -0.0000 26.2537 -4.8038 -37.5484 -7.7422
 -3.2405 33.1754 -3.7180 8.3337 -1.6446 2.8374 -4.6304 -6.5348 -3.5101 4.1104 0.0000 -0.0000 -12.7473 -6.0209 -1.2790 4.4432 0.0000 -0.0000 -2.9884 2.6222 1.9510 4.0861 -0.0000 0.0000 -11.2896 7.6286 -13.2556 9.3315 -0.0000 0.0000 -11.5017 -2.0684 -3.1014 -11.6145 -6.3853 -34.7695 -75.9095 -17.5601 24.8801 102.8582 0.0000 -11.6090 13.9826 15.3863 -43.1824 32.8623 0.0000 -24.3270 -2.3640 10.5242 11.6682 -4.4549 -38.4961 -85.8027 -18.0550 -0.0000 15.1368 0.0506 0.1761 -16.0212 33.1476 -0.0000 26.2537 -4.6930 -37.5112 -7.6628
 -3.2403 33.1758 -3.7130 8.3190 -1.7021 2.8423 -4.6207 -6.4999 -3.5124 4.1241 -0.0000 -0.0000 -12.7499 -5.9990 -1.2713 4.4691 -0.0000 0.0000 -2.9509 2.6486 1.9458 4.0837 -0.0000 -0.0000 -11.2983 7.6478 -13.2243 9.2959 0.0000 -0.0000 -11.5155 -2.0813 -3.1053 -11.6601 -6.3648 -34.8528 -75.7629 -17.3453 24.8974 102.8575 0.0000 -11.7839 14.0785 15.3220 -43.5030 32.8623 0.0000 -24.3270 -2.3631 10.5065 11.6687 -4.4030 -38.5313 -85.7872 -18.0134 -0.0000 15.1372 0.0532 0.1852 -16.0373 33.1476 -0.0000 26.2537 -4.5602 -37.4773 -7.5762
